<?xml version="1.0" encoding="UTF-8" standalone="no"?>
<!DOCTYPE svg PUBLIC "-//W3C//DTD SVG 1.1//EN" "http://www.w3.org/Graphics/SVG/1.1/DTD/svg11.dtd">
<svg width="100%" height="100%" viewBox="0 0 553 229" version="1.1" xmlns="http://www.w3.org/2000/svg" xmlns:xlink="http://www.w3.org/1999/xlink" xml:space="preserve" xmlns:serif="http://www.serif.com/" style="fill-rule:evenodd;clip-rule:evenodd;stroke-linecap:round;stroke-linejoin:round;stroke-miterlimit:1.5;">
    <g transform="matrix(1,0,0,1,-443.5,-202.556578)">
        <g transform="matrix(1,0,0,1,79,-5)">
            <path d="M721,415L721,394" style="fill:none;stroke:white;stroke-width:1px;"/>
            <g transform="matrix(1,0,0,1,0,21)">
                <path d="M721,415L721,394" style="fill:none;stroke:white;stroke-width:1px;"/>
            </g>
            <g transform="matrix(0,1,-1,0,1136,-306)">
                <path d="M721,415L721,394" style="fill:none;stroke:white;stroke-width:1px;"/>
            </g>
            <g transform="matrix(0,1,-1,0,1115,-306)">
                <path d="M721,415L721,394" style="fill:none;stroke:white;stroke-width:1px;"/>
            </g>
        </g>
        <g transform="matrix(1,0,0,1,-40.00043,28.056578)">
            <path d="M606,255L621,255C625.418,253.208 628.046,250.181 629,246L629,187C627.999,182.263 625.537,179.341 621,179L606,179L606,175L693,175L703,187L686,208L717,250L719,250L733,233C732.288,230.076 730.393,229.123 728,229L722,229L722,225L739,225L753,208C745.341,194.585 737.388,184.394 729,179L722,179L722,175L758,175L815,253L819,253C821.575,251.796 822.991,249.538 823,246L823,195C820.019,188.994 815.356,183.548 808,179L800,179L800,175L835,175L880,236L880,187C878.852,182.407 876.481,179.801 873,179L857,179L857,175L982,175C991.879,187.719 1006.128,206.054 1006,212L1006,227C1001.056,238.637 992.272,248.179 984,258L869,258L828,203L828,246C829.002,250.998 831.564,254.436 837,255L850,255L850,258L790,258L757,212L746,225L757,225L774,248L745,248C743.681,243.681 741.41,239.975 738,237C732.705,241.019 728.906,245.786 726,251L726,255L744,255L744,258L695,258C684.681,242.286 674.683,228 667,224L660,224L660,220L667,220C673.92,214.529 679.991,208.263 685,201C680.516,192.173 674.024,184.72 665,179L656,179C652.39,181.099 650.623,184.229 650,188L650,247C651.006,250.994 653.366,253.634 657,255L673,255L673,258L606,258L606,255ZM939,189L939,244C939.64,250.92 943.386,254.501 950,255L976,255C982.764,251.934 987.657,246.845 990,239L990,225C980.169,202.336 960.793,181.516 953,179L944,179C940.743,181.844 939.224,185.223 939,189ZM918,244L918,189C917.245,183.658 915.04,180.161 911,179L891,179C886.784,181.463 885.034,184.894 885,189L885,244C888.044,249.849 892.529,253.258 898,255L911,255C914.978,252.521 917.382,248.905 918,244ZM598,175C598,175 602.974,183.292 605,187C607.367,191.331 592,204 592,204C585.794,193.206 577.688,184.312 566,179L552,179C539.51,183.592 531.74,192.116 528,204L528,214L557,254L588,254C589.955,253.035 590.597,251.694 590,250C584.89,239.023 577.214,229.696 567,222L559,222L559,218L612,218L612,221L603,221C600.852,222.016 599.867,224.067 601,228L610,241L600,258L533,258C525.132,248.174 518.046,238.191 512,228L512,215C521.089,201.667 531.088,188.333 542,175L598,175Z" style="fill:white;stroke:rgb(241,240,240);stroke-width:1px;"/>
        </g>
        <g transform="matrix(1,0,0,-1,-16,410.056578)">
            <path d="M481,207L460,173L460,158L499,110L720,110" style="fill:none;stroke:white;stroke-opacity:0.8;stroke-width:1px;"/>
        </g>
        <g transform="matrix(-1,0,0,-1,1456,410.056578)">
            <path d="M481,207L460,173L460,158L499,110L720,110" style="fill:none;stroke:white;stroke-opacity:0.8;stroke-width:1px;"/>
        </g>
        <g transform="matrix(1,0,0,1,69.387355,152.056578)">
            <g transform="matrix(1,0,0,0.901736,26.987403,-0.854832)">
                <path d="M562.043,287L562.043,186.845C560.802,182.363 558.377,179.687 553.928,179.118L533.716,179.118L533.716,175.057L609.459,175.057L609.459,179.118L584.978,179.118C581.902,180.531 580,183.197 579.019,186.845L579.019,287L562.043,287Z" style="fill:white;fill-rule:nonzero;stroke:white;stroke-width:1.05px;stroke-linecap:butt;stroke-miterlimit:2;"/>
            </g>
            <g transform="matrix(1,0,0,1,33,-0.056578)">
                <path d="M644.425,258C623.327,227.172 601.501,190.571 597.811,187.098C591.533,179.333 586.563,179.516 583.19,179.127L576.575,179.127L576.575,175.057L613.938,175.057L652.684,231.502L672.574,187.098C673.39,181.786 668.51,179.384 662.405,179.127L655.255,179.127L655.255,175.057L688.16,175.057L655.684,258L644.425,258Z" style="fill:white;fill-rule:nonzero;stroke:white;stroke-width:1px;stroke-linecap:butt;stroke-miterlimit:2;"/>
            </g>
        </g>
    </g>
</svg>
